<?xml version="1.0" encoding="UTF-8" standalone="no"?>
<svg width="144px" height="31px" viewBox="0 0 144 31" version="1.1" xmlns="http://www.w3.org/2000/svg" xmlns:xlink="http://www.w3.org/1999/xlink" xmlns:sketch="http://www.bohemiancoding.com/sketch/ns">
    <!-- Generator: Sketch 3.4 (15575) - http://www.bohemiancoding.com/sketch -->
    <title>logo-party</title>
    <desc>Created with Sketch.</desc>
    <defs></defs>
    <g id="Page-1" stroke="none" stroke-width="1" fill="none" fill-rule="evenodd" sketch:type="MSPage">
        <g id="Desktop" sketch:type="MSArtboardGroup" transform="translate(-240.000000, -942.000000)" fill="#FFFFFF">
            <g id="logo-party" sketch:type="MSLayerGroup" transform="translate(240.000000, 942.000000)">
                <path d="M111.2319,1.375 C111.1359,0.907 110.7189,0.556 110.2239,0.556 L110.2209,0.556 L110.2119,0.556 L87.0609,0.571 L87.0489,0.571 C86.5509,0.571 86.1339,0.925 86.0379,1.393 C86.0379,1.399 86.0409,5.875 86.0439,5.881 C86.1399,6.349 86.5569,6.703 87.0519,6.7 L87.0639,6.7 L94.2729,6.697 C94.8399,6.697 95.3019,7.159 95.3019,7.723 L95.3199,29.926 C95.3199,30.487 95.7849,30.949 96.3519,30.949 L100.9809,30.946 C101.5479,30.946 102.0129,30.484 102.0099,29.92 L101.9919,7.717 C101.9949,7.156 102.4539,6.691 103.0209,6.691 L110.2149,6.688 L110.2269,6.688 C110.7219,6.685 111.1389,6.331 111.2349,5.866 C111.2379,5.857 111.2349,1.381 111.2319,1.375 Z M-0.0003,1.6681 C-0.0003,1.1041 0.4617,0.6421 1.0287,0.6421 L12.1167,0.6361 C12.6807,0.6331 22.9257,0.3271 22.9317,9.8461 C22.9377,16.2601 18.0687,19.1551 11.6487,19.1581 L7.7667,19.1611 C7.1997,19.1611 6.7377,19.6231 6.7377,20.1871 L6.7467,29.9731 C6.7467,30.5341 6.2817,30.9961 5.7147,30.9961 L1.0527,30.9991 C0.4857,30.9991 0.0207,30.5371 0.0237,29.9761 L-0.0003,1.6681 Z M6.7317,12.4771 C6.7317,13.0411 7.1937,13.5031 7.7607,13.5001 L11.9067,13.5001 C14.3517,13.4971 15.9537,12.0451 15.9507,10.1851 C15.9507,7.6891 14.4657,6.5281 11.8797,6.5311 L7.7577,6.5341 C7.1907,6.5341 6.7257,6.9931 6.7287,7.5601 L6.7317,12.4771 Z M82.5939,30.0787 L75.8169,18.9037 C75.5379,18.3127 75.8679,18.0397 76.3539,17.8957 C80.0139,16.8187 81.9459,13.7167 81.9429,9.8107 C81.9369,-0.1823 69.9639,0.5947 69.3969,0.5917 L59.6469,0.6007 C59.0769,0.6007 58.6149,1.0657 58.6149,1.6297 L58.6389,29.9467 C58.6389,30.5107 59.1009,30.9727 59.6679,30.9727 L64.3329,30.9697 C64.8999,30.9697 65.3649,30.5077 65.3619,29.9437 L65.3559,19.8577 C65.3529,19.2907 65.6229,18.8287 66.1869,18.8287 L67.8729,18.8287 C68.4399,18.8287 68.8899,19.2367 69.1539,19.7377 L74.7939,30.0517 C75.0549,30.5527 75.7359,30.9637 76.3029,30.9607 L82.0959,30.9577 C82.6629,30.9577 82.8879,30.5617 82.5939,30.0787 Z M66.3819,13.4647 C65.8149,13.4647 65.3499,13.0147 65.3499,12.4507 L65.3469,7.2877 C65.3439,6.7237 65.8089,6.2617 66.3759,6.2617 L69.7419,6.2587 C72.1989,6.2557 74.5569,7.0717 74.5599,9.8347 C74.5629,13.7527 70.3479,13.4617 70.3479,13.4617 L66.3819,13.4647 Z M54.4893,30.0346 L42.1083,1.9816 C41.8803,1.4656 41.3403,0.6016 40.4163,0.6016 L35.0193,0.6046 C34.0953,0.6076 33.5553,1.4716 33.3303,1.9876 L20.9913,30.0556 C20.7693,30.5746 21.0483,30.9976 21.6153,30.9976 L21.6153,31.0006 L27.0903,30.9946 L27.0933,30.9946 C28.0563,30.9916 28.3563,30.0436 28.3563,30.0436 C28.3563,30.0436 30.2103,25.4986 30.2133,25.4926 C30.4323,24.9766 31.0233,24.5536 31.5873,24.5536 L43.8873,24.5446 C44.4483,24.5446 45.0423,24.9676 45.2613,25.4836 C45.2613,25.4866 47.1243,30.0316 47.1243,30.0316 C47.1243,30.0316 47.4273,30.9796 48.3903,30.9796 L48.3933,30.9796 L53.8683,30.9766 C54.4353,30.9766 54.7143,30.5506 54.4893,30.0346 Z M33.4503,18.9736 C32.9733,18.8896 32.9883,18.4996 33.1623,18.0316 L36.0813,10.7596 C36.5913,9.5626 36.9753,8.5666 37.7223,8.5396 C38.4693,8.5666 38.8593,9.5626 39.3693,10.7566 L42.3003,18.0256 C42.4743,18.4906 42.4893,18.8806 42.0123,18.9676 C42.0093,18.9706 33.4533,18.9736 33.4503,18.9736 Z M143.0322,0.5341 L137.2512,0.5371 L137.2482,0.5371 C136.7532,0.5371 136.1592,0.8461 135.8352,1.2541 C135.7872,1.3111 129.8322,10.2031 129.8322,10.2031 C129.8292,10.2121 129.8232,10.2181 129.8172,10.2241 C129.7572,10.3081 129.5292,10.5961 129.2352,10.6171 C128.9442,10.5961 128.7102,10.3081 128.6502,10.2241 C128.6472,10.2181 128.6412,10.2121 128.6352,10.2031 C128.6352,10.2031 122.6682,1.3201 122.6202,1.2601 C122.2932,0.8551 121.7022,0.5491 121.2042,0.5491 L115.4202,0.5521 C114.9252,0.5521 114.7032,0.8491 114.8652,1.2391 C114.8862,1.2961 125.3112,17.1121 125.3112,17.1121 C125.3142,17.1151 125.3142,17.1181 125.3142,17.1181 C125.8452,18.0031 125.8692,18.8431 125.8782,19.7401 C125.8782,19.7581 125.8842,29.9041 125.8842,29.9041 C125.8872,30.4681 126.3522,30.9301 126.9162,30.9271 L126.9192,30.9271 L131.5842,30.9271 L131.5872,30.9271 C132.1512,30.9271 132.6162,30.4651 132.6162,29.9011 C132.6162,29.9011 132.6072,19.7521 132.6072,19.7341 C132.6162,18.8791 132.5982,18.0631 133.1682,17.1121 L133.1682,17.1061 C133.1682,17.1061 143.5692,1.2781 143.5932,1.2211 C143.7522,0.8311 143.5302,0.5341 143.0322,0.5341 Z" id="Fill-1" sketch:type="MSShapeGroup"></path>
            </g>
        </g>
    </g>
</svg>